<?xml version="1.0" standalone="no"?>
<!DOCTYPE svg PUBLIC "-//W3C//DTD SVG 20010904//EN"
 "http://www.w3.org/TR/2001/REC-SVG-20010904/DTD/svg10.dtd">
<svg version="1.0" xmlns="http://www.w3.org/2000/svg"
 width="256.000000pt" height="256.000000pt" viewBox="0 0 256.000000 256.000000"
 preserveAspectRatio="xMidYMid meet">

<g transform="translate(0.000000,256.000000) scale(0.100000,-0.100000)"
fill="#000000" stroke="none">
<path d="M252 2539 c-53 -26 -87 -70 -102 -129 -8 -32 -10 -340 -8 -1065 3
-999 3 -1021 23 -1054 11 -19 37 -48 58 -65 l39 -31 241 -3 c217 -3 243 -1
254 14 9 12 9 22 2 35 -9 18 -25 19 -225 19 -241 0 -268 6 -298 63 -16 29 -17
114 -14 1065 l3 1034 33 29 32 29 595 0 595 0 0 -140 c0 -110 4 -148 16 -173
46 -91 86 -107 264 -107 l140 0 0 -326 c0 -332 3 -364 38 -364 41 0 42 11 42
362 0 279 -3 345 -15 375 -18 42 -347 379 -414 424 l-44 29 -606 0 c-598 0
-607 0 -649 -21z m1450 -256 c76 -76 138 -141 138 -145 0 -5 -43 -8 -95 -8
-161 0 -195 33 -195 193 0 53 3 97 7 97 4 0 70 -62 145 -137z"/>
<path d="M419 2114 c-9 -11 -10 -20 -2 -32 9 -15 43 -17 338 -17 295 0 329 2
338 17 8 12 7 21 -2 32 -12 14 -54 16 -336 16 -282 0 -324 -2 -336 -16z"/>
<path d="M420 1855 c-6 -8 -9 -23 -5 -35 6 -20 8 -20 648 -18 l642 3 3 24 c2
13 -2 28 -10 32 -7 5 -295 9 -639 9 -536 0 -628 -2 -639 -15z"/>
<path d="M422 1628 c-16 -16 -15 -33 4 -52 14 -14 85 -16 630 -16 405 0 622 4
635 10 21 12 25 40 7 58 -17 17 -1259 17 -1276 0z"/>
<path d="M808 1288 c-21 -7 -62 -69 -197 -297 -108 -182 -171 -298 -171 -315
0 -43 16 -63 84 -101 66 -37 127 -46 168 -24 31 17 32 4 4 -44 -31 -52 -33
-100 -6 -144 22 -36 41 -49 91 -58 27 -5 38 -13 46 -35 13 -34 67 -70 104 -70
20 0 30 -7 39 -31 17 -41 65 -69 117 -69 34 0 47 -6 76 -35 31 -31 41 -35 85
-35 34 0 57 6 75 20 l26 20 53 -31 c96 -57 181 -43 213 35 14 33 16 34 48 24
52 -16 119 17 143 71 15 35 22 41 48 41 43 0 90 31 110 73 11 25 21 34 31 30
28 -10 84 8 113 37 37 37 48 87 28 134 -14 34 -14 36 7 48 12 7 43 11 69 9 37
-2 59 4 107 29 33 18 68 41 77 52 37 40 24 71 -149 363 -204 344 -208 347
-326 267 -73 -50 -95 -82 -96 -140 -1 -44 -3 -47 -29 -50 -15 -2 -57 8 -92 22
-76 31 -105 32 -202 7 -72 -19 -74 -19 -115 0 -57 25 -112 24 -191 -6 -111
-42 -161 -30 -168 39 -7 58 -31 90 -97 130 -69 41 -89 47 -123 34z m87 -101
c82 -53 80 -61 -77 -327 -93 -156 -142 -229 -161 -240 -26 -14 -31 -13 -85 16
-31 17 -56 37 -54 44 4 17 315 540 322 540 3 0 28 -15 55 -33z m1286 -241
c112 -189 156 -272 149 -280 -5 -7 -32 -23 -60 -36 -71 -33 -85 -24 -160 105
-83 141 -93 151 -125 119 -20 -20 -18 -25 57 -152 58 -98 60 -103 42 -117 -11
-8 -24 -15 -29 -15 -6 0 -124 68 -264 150 -140 83 -261 150 -270 150 -25 0
-41 -20 -41 -51 0 -31 -44 -79 -71 -79 -17 0 -19 9 -19 105 0 130 9 143 119
170 93 23 101 22 195 -10 74 -25 91 -26 147 -9 9 2 21 -5 29 -20 14 -28 33
-38 54 -30 27 11 26 37 -4 90 -30 55 -37 88 -21 113 11 17 93 70 105 67 4 -1
80 -123 167 -270z m-833 80 c2 -2 -5 -17 -15 -32 -14 -22 -19 -53 -22 -151
l-3 -122 30 -31 c17 -16 41 -30 54 -30 39 1 103 36 135 74 l30 37 239 -141
c131 -78 247 -149 257 -157 34 -31 15 -83 -31 -83 -13 0 -94 42 -180 93 -220
132 -202 124 -223 98 -10 -12 -16 -28 -13 -35 3 -7 68 -50 145 -96 143 -84
168 -110 139 -145 -27 -33 -48 -27 -186 54 -75 45 -144 81 -155 81 -23 0 -41
-31 -29 -50 5 -8 55 -42 112 -75 87 -51 104 -65 106 -89 4 -33 -13 -56 -41
-56 -12 0 -63 25 -114 56 -103 61 -138 67 -138 22 0 -20 11 -33 50 -60 52 -34
67 -66 45 -94 -18 -21 -56 -17 -106 12 -37 22 -42 29 -34 44 28 52 -6 143 -60
163 -28 10 -30 15 -30 60 0 42 -5 54 -33 82 -20 20 -48 36 -71 40 -27 5 -41
15 -52 37 -31 59 -105 83 -165 53 -28 -15 -31 -14 -64 10 -35 27 -80 35 -127
22 -19 -5 -28 -4 -28 4 0 6 51 96 112 200 98 165 116 189 133 184 87 -27 101
-27 187 4 73 26 129 33 146 17z m-461 -505 c13 -28 7 -44 -39 -103 -35 -45
-70 -50 -93 -14 -19 28 -13 44 38 109 35 45 74 48 94 8z m191 -13 c23 -23 11
-58 -49 -143 -51 -71 -65 -85 -88 -85 -33 0 -51 16 -51 46 0 20 100 169 125
186 16 12 50 9 63 -4z m144 -105 c10 -9 18 -24 18 -33 0 -16 -113 -178 -134
-192 -6 -4 -17 -8 -23 -8 -17 0 -53 36 -53 53 0 8 29 55 65 105 69 97 90 109
127 75z m104 -178 c15 -23 15 -27 -1 -52 -46 -72 -73 -87 -107 -56 -26 23 -22
53 13 96 37 44 71 49 95 12z"/>
</g>
</svg>
